PathFileType	4	(x/y/z)	S08_PSF_T14
DataRate	CameraRate	NumFrames	NumMarkers	Units	OrigDataRate	OrigDataStartFrame	OrigNumFrames
240	240	6	51	mm	240	157	417
Frame#	Time	Sternum			R.Acromium			L.Acromium			Top.Head			R.ASIS			L.ASIS			R.PSIS			L.PSIS			R.Great.Tro			L.Great.Tro			R.Iliac.Crest			L.Iliac.Crest			V.Sacral			R.Thigh.Upper.Post			R.Thigh.Lower.Ant			R.Thigh.Lower.Post			R.Thigh.Upper.Ant			R.Knee.Lat			R.Knee.Med			R.Shank.Upper.Post			R.Shank.Lower.Ant			R.Shank.Lower.Post			R.Shank.Upper.Ant			R.Ankle.Lat			R.Ankle.Med			R.Heel.Upper			R.Heel.Med			R.Heel.Lat			R.Toe.Lat			R.Toe.Med			R.Toe.Tip			L.Thigh.Upper.Post			L.Thigh.Lower.Ant			L.Thigh.Lower.Post			L.Thigh.Upper.Ant			L.Knee.Lat			L.Knee.Med			L.Shank.Upper.Post			L.Shank.Lower.Ant			L.Shank.Lower.Post			L.Shank.Upper.Ant			L.Ankle.Lat			L.Ankle.Med			L.Heel.Upper			L.Heel.Med			L.Heel.Lat			L.Toe.Lat			L.Toe.Med			L.Toe.Tip			Cervical.Spine			Back			
		X1	Y1	Z1	X2	Y2	Z2	X3	Y3	Z3	X4	Y4	Z4	X5	Y5	Z5	X6	Y6	Z6	X7	Y7	Z7	X8	Y8	Z8	X9	Y9	Z9	X10	Y10	Z10	X11	Y11	Z11	X12	Y12	Z12	X13	Y13	Z13	X14	Y14	Z14	X15	Y15	Z15	X16	Y16	Z16	X17	Y17	Z17	X18	Y18	Z18	X19	Y19	Z19	X20	Y20	Z20	X21	Y21	Z21	X22	Y22	Z22	X23	Y23	Z23	X24	Y24	Z24	X25	Y25	Z25	X26	Y26	Z26	X27	Y27	Z27	X28	Y28	Z28	X29	Y29	Z29	X30	Y30	Z30	X31	Y31	Z31	X32	Y32	Z32	X33	Y33	Z33	X34	Y34	Z34	X35	Y35	Z35	X36	Y36	Z36	X37	Y37	Z37	X38	Y38	Z38	X39	Y39	Z39	X40	Y40	Z40	X41	Y41	Z41	X42	Y42	Z42	X43	Y43	Z43	X44	Y44	Z44	X45	Y45	Z45	X46	Y46	Z46	X47	Y47	Z47	X48	Y48	Z48	X49	Y49	Z49	X50	Y50	Z50	X51	Y51	Z51	

157	0.65	-607.76	1214.6	321.4	-729.41	1448.2	498.76	-740.72	1482.3	164.52	-730.32	1768.7	347.73	-626.27	1005.9	423.28	-627.93	999.91	190.7	-831.07	1023.9	351.81	-825.73	1028	259.31	-680.17	899.67	496.14	-733.66	891.79	128.32	-723.39	1070.8	471.58	-723.56	1082.4	164.03	-845.13	985.81	304.99	-642.7	702.27	479.52	-543.71	629.12	438.86	-612.79	618.26	456.93	-567.68	719.03	460.59	-549.26	527.34	429.77	-588.28	522.61	308.87	-587.04	333.85	439.63	-519.95	280.04	410.85	-577.83	257.5	430.51	-528.76	357.59	423.09	-560.13	92.445	388.81	-532.26	114.58	311.49	-604.57	63.658	336.76	-589.59	38.24	309.34	-598.58	38.61	370.76	NaN	NaN	NaN	-406.01	53.676	303.85	-344.76	77.89	351.29	-775.31	691.48	146.48	-695.81	592.9	156.66	-765.33	601.4	158.42	-704.37	679.74	140.32	-771.65	500.72	171.36	-751.86	489.2	295.42	-928.19	406.25	172.39	-940.34	295.33	183.42	-980.2	354.79	187	-889.16	353.73	170.99	-1081.3	211.78	195.43	-1056.9	198.42	278.2	-1130.2	237.84	245.76	-1147.4	210.5	279.19	-1149.9	215.54	214.94	-1062.4	67.562	187.14	-1040.8	63.333	300.78	-992.44	36.448	256.1	-800.8	1508.2	325.68	-845.3	1223.7	327.35
158	0.65417	-602.27	1215.4	321.76	-723.68	1448.9	499.23	-735.35	1482.9	165.03	-724.91	1769.3	348.34	-620.64	1006.6	423.82	-622.44	1000.3	191.25	-825.48	1024.5	352.26	-820.21	1028.3	259.74	-674.52	900.54	496.8	-727.62	891.71	128.96	-717.78	1071.6	472.03	-718.14	1082.8	164.48	-839.53	986.24	305.53	-637.78	702.83	480.26	-539.16	629.28	439.4	-608.26	618.72	457.65	-562.74	719.3	461.15	-545.28	527.35	430.22	-584.32	522.99	309.33	-584.49	334.07	440.02	-517.83	279.8	411.06	-575.85	257.68	430.78	-526.05	357.41	423.39	-559.71	92.525	388.84	-531.73	114.57	311.6	-604.38	63.84	336.84	-589.49	38.412	309.39	-598.45	38.744	370.81	NaN	NaN	NaN	-405.83	53.029	303.71	-344.39	76.888	351.13	-766.99	690.51	146.77	-686.32	592.83	156.48	-755.79	600.54	158.31	-695.96	679.63	140.48	-760.86	500.18	170.9	-740.4	488.21	295.18	-917.72	407.71	172.07	-931.44	296.88	182.85	-970.4	356.9	186.68	-879.4	354.68	170.55	-1073.1	215.63	194.62	-1049	201.73	277.61	-1120.7	243.51	244.87	-1138.9	216.85	278.4	-1141.2	221.86	214.13	-1058.7	70.515	186.8	-1037.3	65.825	300.35	-990.13	36.162	255.74	-795.32	1508.8	326.3	-839.74	1224.3	327.99
159	0.65833	-596.82	1216.1	322.08	-717.94	1449.6	499.68	-730	1483.6	165.51	-719.51	1769.9	348.94	-615.04	1007.4	424.34	-617.02	1000.7	191.78	-819.94	1025.1	352.73	-814.77	1028.6	260.19	-668.93	901.38	497.45	-721.66	891.64	129.61	-712.19	1072.4	472.48	-712.79	1083.1	164.94	-834	986.66	306.1	-633	703.38	480.96	-534.75	629.38	439.93	-603.89	619.15	458.34	-557.92	719.52	461.72	-541.45	527.34	430.66	-580.5	523.35	309.76	-582.07	334.28	440.36	-515.84	279.56	411.27	-573.99	257.85	431.02	-523.48	357.23	423.69	-559.33	92.614	388.86	-531.24	114.57	311.68	-604.2	64.001	336.91	-589.4	38.567	309.43	-598.34	38.865	370.86	NaN	NaN	NaN	-405.67	52.459	303.57	-344.06	75.998	350.96	-758.65	689.59	147.06	-676.8	592.84	156.32	-746.24	599.74	158.22	-687.52	679.6	140.63	-749.98	499.73	170.45	-728.9	487.33	294.97	-907.09	409.18	171.76	-922.37	298.49	182.31	-960.42	359.02	186.37	-869.48	355.68	170.15	-1064.6	219.45	193.84	-1040.8	205.04	277.04	-1111	249.07	244	-1130.2	223.09	277.61	-1132.3	228.06	213.34	-1054.5	73.561	186.45	-1033.3	68.432	299.91	-987.47	35.965	255.34	-789.84	1509.5	326.91	-834.21	1225	328.64
160	0.6625	-591.4	1216.8	322.37	-712.19	1450.4	500.11	-724.67	1484.3	165.98	-714.12	1770.5	349.52	-609.47	1008.2	424.86	-611.66	1001.1	192.29	-814.45	1025.7	353.23	-809.4	1029	260.66	-663.4	902.21	498.1	-715.77	891.59	130.27	-706.63	1073.2	472.94	-707.52	1083.4	165.4	-828.53	987.08	306.7	-628.35	703.89	481.62	-530.5	629.44	440.46	-599.68	619.56	459	-553.22	719.7	462.28	-537.78	527.31	431.08	-576.83	523.69	310.17	-579.79	334.48	440.66	-513.96	279.32	411.46	-572.25	258.02	431.22	-521.04	357.04	423.97	-558.99	92.71	388.86	-530.81	114.59	311.75	-604.06	64.142	336.97	-589.33	38.706	309.47	-598.23	38.975	370.91	NaN	NaN	NaN	-405.54	51.96	303.44	-343.78	75.209	350.8	-750.29	688.74	147.34	-667.27	592.93	156.18	-736.7	599.02	158.16	-679.05	679.64	140.77	-739.04	499.36	170.01	-717.38	486.57	294.79	-896.33	410.66	171.46	-913.13	300.17	181.79	-950.27	361.14	186.05	-859.4	356.7	169.76	-1056	223.22	193.07	-1032.5	208.33	276.5	-1101.1	254.48	243.16	-1121.1	229.17	276.84	-1123.1	234.11	212.56	-1050	76.678	186.1	-1029	71.134	299.45	-984.4	35.877	254.89	-784.37	1510.1	327.51	-828.71	1225.6	329.3
161	0.66667	-586.01	1217.5	322.63	-706.43	1451.2	500.52	-719.35	1485	166.43	-708.73	1771.2	350.09	-603.94	1008.9	425.36	-606.37	1001.6	192.78	-809	1026.2	353.76	-804.09	1029.3	261.17	-657.92	903	498.74	-709.95	891.56	130.94	-701.1	1074	473.39	-702.32	1083.7	165.87	-823.11	987.5	307.33	-623.84	704.39	482.25	-526.39	629.45	440.98	-595.62	619.94	459.62	-548.66	719.84	462.84	-534.27	527.26	431.49	-573.3	524.02	310.56	-577.64	334.68	440.92	-512.2	279.1	411.65	-570.63	258.19	431.39	-518.74	356.87	424.24	-558.68	92.812	388.85	-530.42	114.61	311.81	-603.93	64.266	337.02	-589.26	38.83	309.5	-598.14	39.075	370.94	NaN	NaN	NaN	-405.42	51.524	303.31	-343.53	74.51	350.65	-741.91	687.96	147.62	-657.74	593.12	156.05	-727.15	598.37	158.13	-670.56	679.77	140.9	-728.04	499.1	169.6	-705.87	485.94	294.66	-885.44	412.15	171.16	-903.75	301.89	181.31	-939.98	363.24	185.72	-849.18	357.76	169.41	-1047.1	226.92	192.34	-1023.9	211.6	275.98	-1091	259.73	242.34	-1111.8	235.06	276.1	-1113.7	239.96	211.8	-1045.1	79.841	185.73	-1024.2	73.906	298.97	-980.88	35.919	254.39	-778.9	1510.8	328.1	-823.25	1226.3	329.96
162	0.67083	-580.65	1218.1	322.86	-700.66	1451.9	500.92	-714.06	1485.7	166.86	-703.35	1771.8	350.64	-598.43	1009.6	425.85	-601.14	1002	193.26	-803.6	1026.8	354.31	-798.84	1029.6	261.69	-652.51	903.76	499.36	-704.2	891.56	131.62	-695.58	1074.7	473.84	-697.19	1084	166.34	-817.74	987.91	307.98	-619.46	704.87	482.83	-522.42	629.43	441.49	-591.72	620.31	460.2	-544.21	719.94	463.39	-530.91	527.19	431.87	-569.92	524.33	310.92	-575.63	334.87	441.14	-510.55	278.89	411.84	-569.12	258.36	431.52	-516.57	356.69	424.5	-558.4	92.917	388.82	-530.06	114.64	311.85	-603.81	64.375	337.07	-589.21	38.941	309.53	-598.06	39.167	370.97	NaN	NaN	NaN	-405.32	51.145	303.18	-343.31	73.89	350.5	-733.52	687.26	147.91	-648.22	593.4	155.95	-717.62	597.82	158.13	-662.06	679.98	141.01	-717	498.95	169.2	-694.4	485.47	294.56	-874.45	413.66	170.86	-894.23	303.67	180.86	-929.55	365.34	185.4	-838.83	358.86	169.1	-1038.1	230.55	191.64	-1015.1	214.82	275.48	-1080.8	264.78	241.56	-1102.3	240.71	275.39	-1104.1	245.58	211.08	-1039.7	83.027	185.36	-1018.9	76.723	298.47	-976.86	36.111	253.84	-773.43	1511.5	328.68	-817.83	1227	330.62
